<?xml version="1.0" encoding="UTF-8"?>
<!-- Created with Inkscape (http://www.inkscape.org/) -->
<svg width="308.9mm" height="276.23mm" version="1.1" viewBox="0 0 308.9 276.23" xmlns="http://www.w3.org/2000/svg" xmlns:xlink="http://www.w3.org/1999/xlink">
 <defs>
  <linearGradient id="linearGradient1364" x1="-92.72" x2="213.31" y1="139.43" y2="139.43" gradientUnits="userSpaceOnUse">
   <stop stop-color="#214478" offset="0"/>
   <stop stop-color="#ffffff" offset="1"/>
  </linearGradient>
 </defs>
 <g transform="translate(92.72 -4.9042)">
  <path d="m65.436 273.29c-19.266-1.9472-40.476-9.1742-57.061-19.442-17.175-10.633-32.047-25.505-42.681-42.681-10.519-16.99-17.485-37.694-19.47-57.866-1.0762-10.935-0.58806-28.585 0.79064-28.585 0.87964 0 2.7376 2.1446 3.5887 4.1421 0.37462 0.87925 0.99544 1.4916 1.3795 1.3604 1.3994-0.47841 0.3083-3.017-2.393-5.5706-2.4519-2.3174-3.3469-2.7558-7.9541-3.8942-6.2544-1.5453-13.491-1.3417-18.844 0.53004-3.502 1.2246-12.369 5.8142-14.057 7.2757-0.54576 0.47334-1.1636 0.68799-1.3727 0.47942-0.77374-0.77345 4.1984-14.458 5.9858-16.474 0.55115-0.62118 2.2-3.0511 3.664-5.3986 1.464-2.3476 3.9998-5.7178 5.6351-7.4888 1.6353-1.7712 2.8378-3.2205 2.672-3.2205-0.16571 0 1.4654-1.7803 3.6247-3.9564 2.1593-2.1759 4.14-3.9563 4.4015-3.9563 0.26153 0 1.1266-0.7734 1.9223-1.7194 0.79575-0.94566 1.5513-1.615 1.6789-1.4874 0.12774 0.1275 1.012-0.49563 1.9653-1.3869 0.95324-0.89058 1.9617-1.4778 2.2409-1.3053 0.27928 0.17258 0.50772 0.0354 0.50772-0.2781 0-0.8837 4.4654-3.5329 5.195-3.082 0.34724 0.2142 0.48342 0.15052 0.30236-0.1428-0.45233-0.73277 5.0963-3.775 6.1478-3.3715 0.4661 0.1782 0.71055 0.10328 0.54295-0.1683-0.42333-0.68497 2.8472-1.9603 3.6904-1.4393 0.4128 0.25515 0.5406 0.18832 0.32039-0.16988-0.22003-0.35438 1.0034-1.0028 3.0636-1.6199 3.3686-1.0091 3.4858-1.1134 6.5679-5.8531 5.1111-7.8598 10.151-14.015 17.38-21.223 10.761-10.731 21.97-18.624 36.198-25.488 6.8769-3.3176 18.822-7.8679 19.328-7.3622 0.12448 0.12352-0.88859 1.8459-2.2511 3.8253-5.5723 8.0952-9.7545 18.068-11.108 26.489-1.894 11.78 0.78873 26.054 6.426 34.194 1.0764 1.5543 2.4558 3.7232 3.0653 4.8198 1.7073 3.0722 8.2404 9.8466 13.312 13.804 8.7808 6.8513 21.534 12.925 32.67 15.558 6.0848 1.4393 14.679 2.393 17.936 1.9911 2.3393-0.28755 2.1617-0.16133-1.9475 1.3916-2.4868 0.94026-5.0302 1.9316-5.6519 2.2028-0.62155 0.27068-2.984 1.0533-5.2495 1.7383-2.2654 0.68498-6.45 2.4119-9.2989 3.838-6.41 3.209-13.435 9.7976-16.134 15.131l-1.7157 3.3912-0.63894-1.6955c-0.35124-0.93258-1.0434-2.7744-1.538-4.093-1.1137-2.969-0.72847-6.4795 0.9619-8.7658 1.9478-2.6346 0.4979-3.207-1.6188-0.63788-2.8368 3.4414-2.8444 5.628-0.04556 13.22 1.3167 3.5724 2.6926 6.8767 3.0576 7.3429 0.92735 1.1848 10.461 20.119 10.461 20.776 0 0.29733-3.1649 2.0365-7.0331 3.869-6.5065 3.0822-7.1232 3.5115-8.2353 5.7347-1.0279 2.0546-1.1662 3.1195-0.95414 7.3474 0.13662 2.7194 0.49542 5.9896 0.79753 7.2672 1.3638 5.7652 6.8104 14.909 13.814 23.192 14.498 17.145 36.682 27.896 57.565 27.896 5.9441 0 15.27-1.5221 21.443-3.4996 4.5258-1.4498 5.7102-2.0897 7.5077-4.056 1.7328-1.8956 2.1318-2.76 2.1217-4.5957-0.0135-2.4163-1.8244-7.0652-2.7525-7.0652-1.0818 0-1.2287 1.1143-0.36659 2.7814 0.94313 1.824 1.1813 6.0031 0.37044 6.5043-0.27567 0.1701-6.8221-7.1272-14.549-16.216-7.7266-9.0887-20.363-23.862-28.081-32.83-7.7177-8.9678-14.156-16.628-14.308-17.023-0.53118-1.384 1.973-1.2852 4.7878 0.18877 1.5626 0.81798 15.063 7.793 30 15.499 21.289 10.983 27.374 13.895 28.154 13.474 0.5472-0.29734 11.728-7.1437 24.847-15.217 20.744-12.767 24.063-14.633 25.473-14.321l1.6211 0.35791-19.386 33.346c-10.662 18.34-19.763 34.127-20.223 35.081-0.46017 0.95439-2.595 3.2979-4.7438 5.2076-27.991 24.877-66.12 37.178-103.52 33.397zm-27.215-161.22c-9.8409-2.913-17.876-10.187-19.852-17.972-0.57804-2.2772-0.84241-2.7172-1.0827-1.8028-0.1748 0.66597 0.22324 2.5232 0.88464 4.1287 3.3384 8.1032 14.896 16.827 22.397 16.905 1.5373 0.0135 1.0142-0.26493-2.3469-1.2596zm13.085-2.5121c0-0.25245-1.4624-0.92093-3.2498-1.4818-3.8155-1.197-9.0584-3.7559-12.42-6.0617-6.2355-4.2766-11.458-11.754-11.459-16.406-2.43e-4 -1.1473-0.2945-2.2678-0.65374-2.4898-0.47876-0.29733-0.56513 0.45108-0.32332 2.7939 0.45866 4.4443 2.9282 8.4747 8.2514 13.467 5.8039 5.443 11.26 8.3775 19.713 10.603 0.07734 0.0236 0.14094-0.17032 0.14094-0.42472zm6.4687-4.0096c0.17494-0.28283-0.72839-0.69182-2.0079-0.90809-3.2961-0.55738-11.486-4.8061-15.469-8.0262-5.4738-4.4248-9.6855-10.768-10.332-15.56-0.15716-1.1657-0.53991-2.1194-0.85058-2.1194-0.9447 0-2.56e-4 3.972 1.811 7.6162 3.7283 7.5012 13.587 15.563 22.527 18.422 3.8306 1.2249 3.9131 1.2358 4.321 0.57485zm31.211 4.716c-9.4358-1.468-18.024-4.3862-27.434-9.3221-13.556-7.1103-22.865-16.503-28.536-28.79-3.4955-7.5743-4.0364-10.449-3.9885-21.195 0.03795-8.7135 0.18423-10.082 1.5604-14.695 2.5661-8.6015 10.275-22.722 13.569-24.856 1.3003-0.84213 18.282-4.2608 28.061-5.6489 10.663-1.5133 19.605-1.0482 33.175 1.7254 18.633 3.8086 34.198 10.496 43.96 18.889l3.616 3.1085 0.038 6.2341c0.0943 16.391-4.1834 33.979-11.154 45.867-3.7261 6.3547-13.197 15.848-21.026 21.075-3.5748 2.387-7.9115 5.0252-9.6371 5.8627-5.5008 2.6693-12.645 3.2306-22.201 1.7442zm11.209-58.494c5.9716-3.5823 4.5326-14.552-2.1202-16.163-4.7729-1.1555-8.0585-0.17752-12.35 3.6763-3.9732 3.5678-6.813 8.7187-5.5198 10.012 0.70022 0.70088 1.0207 0.31894 2.4068-2.8627 1.9689-4.5195 3.4237-4.9775 4.029-1.2685 1.1342 6.9495 7.6713 10.135 13.554 6.6058z" fill="url(#linearGradient1364)" stroke-width=".56519"/>
  <text transform="scale(.26458)" fill="#000000" font-family="sans-serif" font-size="40px" style="line-height:1.25;shape-inside:url(#rect14959);white-space:pre" xml:space="preserve"/>
  <g transform="matrix(7.5938 0 -2.1864 12.526 -415.2 -1536.2)" stroke-width=".26458" aria-label="Fish">
   <path d="m94.003 136.49h-1.1271l1.9844-11.24h6.6199l-0.17462 1.0001h-5.4928l-0.6985 3.9211h5.0959l-0.15875 0.96838h-5.0959z" fill="#000000"/>
   <path d="m102.36 136.49h-1.0636l1.3176-7.4295h1.0636zm1.9526-10.303c0 0.21167-0.0741 0.39158-0.22225 0.53975-0.13759 0.14817-0.31221 0.22225-0.52388 0.22225-0.20108 0-0.3757-0.0635-0.52387-0.1905-0.13759-0.127-0.58227-0.58465-0.20638-0.52388 0.86403 0.13969 1.7203 0.28213 0.22225-0.55562 0.15875-0.14817 0.33867-0.22225 0.53975-0.22225 0.20109 0 0.37042 0.0688 0.508 0.20637 0.13759 0.127 0.20638 0.30163 0.20638 0.52388z" fill="#000000"/>
   <path d="m110.29 130.69q-0.22225-0.41275-0.66675-0.66675-0.4445-0.26988-1.0636-0.26988-0.28575 0-0.60325 0.0635-0.30163 0.0635-0.5715 0.20638-0.254 0.14287-0.42863 0.381-0.15875 0.22225-0.15875 0.55562 0 0.30163 0.0953 0.49213 0.11113 0.1905 0.30163 0.33337 0.1905 0.127 0.46037 0.23813 0.26988 0.0952 0.61913 0.1905 1.0954 0.3175 1.6669 0.80962 0.5715 0.47625 0.5715 1.3652 0 0.60325-0.26987 1.0478-0.26988 0.42863-0.68263 0.71438-0.41275 0.26987-0.92075 0.39687t-1.0001 0.127q-0.93663 0-1.7621-0.34925-0.80962-0.34925-1.27-1.0636l0.92075-0.60325q0.26988 0.46037 0.80963 0.79375 0.53975 0.3175 1.2541 0.3175 0.34925 0 0.68263-0.0635 0.33337-0.0794 0.58737-0.22225 0.26988-0.15875 0.42863-0.39688 0.15875-0.254 0.15875-0.58737 0-0.58738-0.47625-0.889-0.46038-0.3175-1.3335-0.60325-0.33338-0.11113-0.66675-0.254-0.33338-0.14288-0.60325-0.36513-0.26988-0.23812-0.4445-0.55562-0.15875-0.33338-0.15875-0.79375 0-0.5715 0.254-0.98425 0.26987-0.41275 0.66675-0.66675 0.41275-0.26988 0.92075-0.39688t1.016-0.127q0.85725 0 1.524 0.33338 0.68262 0.33337 0.98425 0.889z"/>
   <path d="m116.98 128.87q1.1906 0 1.8574 0.61913 0.68262 0.60325 0.68262 1.651 0 0.1905-0.0318 0.381-0.0159 0.1905-0.0476 0.41275l-0.80963 4.5561h-1.0636l0.73025-4.1116q0.0952-0.49213 0.0952-0.93663 0-0.77787-0.381-1.2224-0.36513-0.46038-1.3018-0.46038-0.42863 0-0.85725 0.17463-0.42863 0.17462-0.79375 0.53975-0.36513 0.36512-0.65088 0.92075-0.26987 0.53975-0.39687 1.2859l-0.66675 3.81h-1.0636l2.1114-12.002h1.0636l-1.016 5.7944h0.0318q0.41275-0.65088 1.0795-1.0319t1.4288-0.381z"/>
  </g>
  <g transform="matrix(7.5938 0 0 7.5938 -407.03 -943.03)" stroke-width=".26458" aria-label="PIN">
   <path d="m59.692 150.79q0 1.8821-1.6104 2.9298-1.0089 0.65969-2.5612 0.65969-0.6597 0-1.494-0.13581v5.5104q0 0.44626 0.03881 0.56268 0.09701 0.27164 0.42686 0.32985 0.56268 0.0776 1.0866 0.0776 0.21343 0 0.21343 0.13582 0 0.19403-0.27164 0.19403-0.11642 0-0.19403-0.0194-1.0672 0.0194-4.0164 0.0194h-0.25224q-0.58208 0-0.58208-0.19403 0-0.13582 0.40746-0.13582 0.91193 0 1.0478-0.17462 0.15522-0.0776 0.17463-0.38806v-11.448q0-0.60149-0.32985-0.73731-0.19403-0.0776-0.6791-0.0776h-0.19403q-0.05821 0.0194-0.13582 0.0194-0.29104 0-0.29104-0.17462 0-0.19403 0.54328-0.19403h4.2686q2.2119 0 3.2403 0.77611 1.1642 0.87313 1.1642 2.4642zm-2.0373 0.0388q0-2.9104-2.4448-2.9104-0.81492 0-1.0672 0.27164-0.11642 0.11642-0.11642 0.60149v5.1611q0.15522 0.0194 0.34925 0.0194 1.2806 0 2.1731-0.56269 1.106-0.6985 1.106-2.5806z"/>
   <path d="m67.246 160.88q0 0.15523-0.23283 0.15523h-0.19403q-0.11642-0.0582-2.6388-0.0582-0.48507 0-0.97014 0.0388-0.25224 0.0194-0.77611 0.0194-0.25224 0-0.25224-0.17463 0-0.15522 0.50447-0.17463 0.77611-0.0194 0.91193-0.17462 0.13582-0.17463 0.13582-1.1254v-10.206q0-0.95073-0.09701-1.0672-0.11642-0.19403-1.0672-0.23283-0.36865-0.0194-0.36865-0.15523 0-0.17462 0.23283-0.17462l2.6194 0.0388q0.29104 0 1.1254-0.0194l0.73731-0.0194q0.31044 0 0.31044 0.17462 0 0.15523-0.85372 0.19403-0.48507 0.0194-0.60149 0.17463-0.09701 0.15522-0.09701 0.81492v10.361q0 1.106 0.09701 1.203 0.21343 0.21343 1.2612 0.25224 0.21343 0 0.21343 0.15522z"/>
   <path d="m82.068 147.74q0 0.19403-0.48507 0.17462l-0.42686-0.0194h-0.34925q-0.31044 0-0.36865 0.11642-0.05821 0.097-0.05821 0.64029v11.176q0 1.0284-0.0194 1.203-0.0194 0.17462-0.11642 0.17462-0.11642 0-0.27164-0.21343l-2.4836-3.6283q-2.1537-3.1627-5.2388-7.8969l0.0194 10.827q0.0194 0.25224 0.29104 0.32985 0.27164 0.0582 1.3 0.0776 0.25224 0 0.25224 0.15522 0 0.19403-0.50447 0.19403-0.17462 0-1.106-0.0582-0.31044-0.0194-0.60149-0.0194 0.0194 0-0.34925 0.0388-0.34925 0.0388-1.0866 0.0388h-0.19403q-0.44626 0-0.44626-0.17463 0-0.17462 0.38806-0.17462 1.1448-0.0194 1.3194-0.13582 0.19403-0.13582 0.19403-0.83432v-9.5656q0-1.6104-0.6597-2.0179-0.31044-0.19403-1.106-0.19403-0.50447 0-0.50447-0.19403 0-0.17462 0.29104-0.17462 0.38806 0 0.98954 0.0194 0.60149 0.0194 0.64029 0.0194 0.05821 0 0.54328-0.0194 0.64029 0 1.2418-0.0194l6.694 9.9536v-8.6342q0-0.60149-0.0194-0.71791-0.0194-0.13582-0.15522-0.19403-0.13582-0.0776-0.93133-0.0776-0.6985 0-0.6985-0.17462 0-0.19403 0.46567-0.19403h0.6791q0.25224 0 0.54328 0 0.31044 0.0194 0.36865 0.0194 0.0194 0 0.34925-0.0194 0.31044 0 0.58208 0h0.60149q0.42686 0 0.42686 0.19403z"/>
  </g>
 </g>
</svg>
